<?xml version="1.0" encoding="utf-8"?>
<!-- Generator: Adobe Illustrator 15.1.0, SVG Export Plug-In . SVG Version: 6.00 Build 0)  -->
<!DOCTYPE svg PUBLIC "-//W3C//DTD SVG 1.1//EN" "http://www.w3.org/Graphics/SVG/1.1/DTD/svg11.dtd">
<svg version="1.1" id="Layer_1" xmlns="http://www.w3.org/2000/svg" xmlns:xlink="http://www.w3.org/1999/xlink" x="0px" y="0px"
	 width="600px" height="600px" viewBox="0 0 600 600" enable-background="new 0 0 600 600" xml:space="preserve">
<g id="Layer_2">
	<g>
		<rect x="63.5" y="57.5" fill="#FFFFFF" width="471" height="485"/>
		<path fill="#ED7D31" d="M534.5,543.5c-39.25,1.942-78.5,3.229-117.75,4.311c-39.25,1.069-78.5,1.849-117.75,2.427
			c-19.625,0.317-39.25,0.501-58.875,0.729c-19.625,0.137-39.25,0.354-58.875,0.406c-39.25,0.263-78.5,0.179-117.75-0.425
			l-0.245-0.004c-4.596-0.071-8.265-3.852-8.203-8.444c0.274-20.208,0.733-40.417,1.206-60.625l1.585-60.625
			c1.102-40.417,2.024-80.833,2.404-121.25c0.377-40.417,0.286-80.833-0.096-121.25l-0.359-30.313l-0.518-30.313
			c-0.312-20.207-0.829-40.416-1.249-60.624c-0.062-2.955,2.281-5.401,5.235-5.47l0.24-0.005l58.875-1.351l29.438-0.643
			l29.438-0.525c39.25-0.747,78.5-1.043,117.75-1.424l117.75-1.166C456,46.604,495.25,46.5,534.5,46.5h0.059
			c5.894,0,10.941,5.079,10.941,10.973V57.5c0,40.417-0.602,80.833-1.075,121.25c-0.439,40.417-1.143,80.833-1.885,121.25
			c-0.357,20.208-0.856,40.417-1.321,60.625l-0.708,30.313l-0.84,30.313c-1.098,40.417-2.402,80.833-4.166,121.25
			c-0.022,0.543-0.462,0.972-0.994,1L534.5,543.5L534.5,543.5z M533.464,541.456c-1.74-40.068-3.037-80.138-4.126-120.206
			l-0.831-30.313l-0.688-30.313c-0.466-20.208-0.93-40.417-1.286-60.625c-0.742-40.417-1.373-80.833-1.813-121.25
			c-0.474-40.417-0.769-80.833-0.933-121.25L534.5,68.215c-39.25,0.057-78.5,0.039-117.75-0.272L299,66.919
			c-39.25-0.381-78.5-0.677-117.75-1.424l-29.438-0.525l-29.438-0.643L63.5,62.975l5.475-5.475
			c-0.42,20.208-0.937,40.417-1.249,60.625l-0.518,30.313l-0.359,30.313c-0.382,40.417-0.473,80.833-0.096,121.25
			c0.379,40.417,1.302,80.833,2.404,121.25l1.585,60.625c0.473,20.208,0.931,40.417,1.206,60.625l-8.448-8.449
			c39.25-0.604,78.5-0.688,117.75-0.425c19.625,0.053,39.25,0.271,58.875,0.406c19.625,0.229,39.25,0.412,58.875,0.729
			c39.25,0.578,78.5,1.356,117.75,2.427C455.654,538.263,494.56,539.542,533.464,541.456z"/>
	</g>
</g>
<g>
	<rect x="142.907" y="132.732" fill="none" width="331.958" height="346.392"/>
	<path fill="#ED7D31" d="M244.313,210.542c-15.73,8.23-35.156,15.209-58.281,20.938c-1.875-3.229-3.933-6.328-6.172-9.297
		c-7.656,5.313-15.912,10.078-24.766,14.297c-3.125-6.458-6.667-12.813-10.625-19.063c14.531-5.469,26.926-12.5,37.188-21.094
		H149.47v-16.563h48.047c2.604-3.438,4.973-7.057,7.109-10.859c-19.167,0.209-31.928,1.225-38.281,3.047l-7.813-16.719
		c7.656-2.031,15.025-5.338,22.109-9.922c7.083-4.583,15.338-10.807,24.766-18.672l28.125,3.906
		c-11.146,8.021-23.542,15.73-37.188,23.125l49.766-1.328l-14.766-10.078l15.156-10.625c14.791,9.271,29.426,19.271,43.906,30
		l-14.531,14.219c-2.917-2.656-6.121-5.391-9.609-8.203l-57.031,1.094l15.859,3.984c-1.406,2.396-2.839,4.74-4.297,7.031h76.328
		v16.563h-32.813c10.364,6.875,22.76,12.24,37.188,16.094c-3.646,5.313-7.5,12.188-11.563,20.625
		c-18.959-8.072-35.261-20.313-48.906-36.719h-32.578c-5.469,6.355-11.459,12.266-17.969,17.734
		c16.822-4.114,31.641-9.036,44.453-14.766L244.313,210.542z M273.845,235.386l11.719,13.75
		c-29.48,16.875-70.156,28.125-122.031,33.75c-2.292-6.146-5.105-12.188-8.438-18.125
		C203.74,260.491,243.323,250.698,273.845,235.386z M264.157,228.823c-19.375,11.355-50,20.678-91.875,27.969
		c-1.667-3.958-4.74-9.27-9.219-15.938c40.52-5.104,70.729-13.072,90.625-23.906L264.157,228.823z"/>
	<path fill="#ED7D31" d="M414.313,241.479H307.438v-20.469h106.875V241.479z M456.345,166.948H352.907l-1.094,17.656h97.031
		l-2.5,62.5c-0.469,11.824-3.686,20.104-9.648,24.844c-5.964,4.739-14.05,7.135-24.258,7.188h-33.75
		c-1.25-6.355-3.073-13.906-5.469-22.656c10.833,0.521,21.406,0.781,31.719,0.781c10.833,0,16.692-3.268,17.578-9.805
		c0.885-6.536,1.536-20.768,1.953-42.695h-97.344l4.375-75.938h23.75l-1.094,17.656h102.188V166.948z"/>
	<path fill="#ED7D31" d="M151.813,472.542V325.667h142.188v146.719h-21.719v-5.469h-98.75v5.625H151.813z M272.282,344.729h-98.75
		v103.438h98.75V344.729z M234.157,348.479h20.469v13.75h11.094v18.281h-11.094v33.594c0,9.428-2.136,16.602-6.406,21.523
		c-4.271,4.922-10.457,7.644-18.555,8.164c-8.1,0.521-15.195,0.781-21.289,0.781c-1.25-7.5-2.605-14.063-4.063-19.688
		c4.947,0.417,10.676,0.625,17.188,0.625c8.438,0,12.656-4.322,12.656-12.969v-25.391c-10.938,15.781-26.25,31.225-45.938,46.328
		c-4.792-6.771-9.219-12.447-13.281-17.031c18.438-10.885,33.567-22.864,45.391-35.938h-40.234v-18.281h54.063V348.479z"/>
	<path fill="#ED7D31" d="M334.157,350.823h15.313v54.375c0,5.313-0.417,10.417-1.25,15.313c8.333,8.542,18.802,19.948,31.406,34.219
		l-14.688,13.75c-6.354-9.219-13.75-18.88-22.188-28.984c-5.521,12.865-14.531,24.088-27.031,33.672
		c-2.813-4.584-6.511-9.948-11.094-16.094c19.688-12.5,29.531-29.896,29.531-52.188V350.823z M388.688,319.104l19.063,3.125
		c-1.823,6.354-3.725,12.396-5.703,18.125h53.047l-0.313,60.156l-0.469,41.563c-0.156,8.542-1.862,15.091-5.117,19.648
		c-3.256,4.557-7.318,7.239-12.188,8.047c-4.87,0.807-16.706,1.314-35.508,1.523c-1.146-6.25-2.761-13.229-4.844-20.938
		c14.791,0.417,23.802,0.625,27.031,0.625c7.708,0,11.563-4.271,11.563-12.813v-3.281l-11.563,4.219l-2.578-8.359
		c-22.917,1.771-36.901,3.568-41.953,5.391l-6.406-12.813h-16.094v-79.063H326.97v79.688h-16.094v-97.656h61.875v33.984
		C379.417,348.298,384.729,334.573,388.688,319.104z M423.688,385.979c4.01,9.531,7.916,19.975,11.719,31.328
		c0.104-14.896,0.156-34.192,0.156-57.891H394.47c-4.271,9.531-8.906,17.865-13.906,25c-2.709-3.072-5.313-5.833-7.813-8.281v40.234
		c6.51-5.416,14.322-21.536,23.438-48.359l17.969,5.781c-7.396,16.979-13.646,30.678-18.75,41.094l20.078-1.641
		c-2.553-7.656-5.078-14.817-7.578-21.484L423.688,385.979z"/>
</g>
</svg>
