<?xml version="1.0" encoding="utf-8"?>
<!-- Generator: Adobe Illustrator 15.1.0, SVG Export Plug-In . SVG Version: 6.00 Build 0)  -->
<!DOCTYPE svg PUBLIC "-//W3C//DTD SVG 1.1//EN" "http://www.w3.org/Graphics/SVG/1.1/DTD/svg11.dtd">
<svg version="1.1" id="Layer_1" xmlns="http://www.w3.org/2000/svg" xmlns:xlink="http://www.w3.org/1999/xlink" x="0px" y="0px"
	 width="600px" height="600px" viewBox="0 0 600 600" enable-background="new 0 0 600 600" xml:space="preserve">
<g id="Layer_2">
	<g>
		<rect x="63.5" y="57.5" fill="#FFFFFF" width="471" height="485"/>
		<path fill="#ED7D31" d="M534.5,543.5c-39.25,1.942-78.5,3.229-117.75,4.311c-39.25,1.069-78.5,1.849-117.75,2.427
			c-19.625,0.317-39.25,0.501-58.875,0.729c-19.625,0.137-39.25,0.354-58.875,0.406c-39.25,0.263-78.5,0.179-117.75-0.425
			l-0.245-0.004c-4.596-0.071-8.265-3.852-8.203-8.444c0.274-20.208,0.733-40.417,1.206-60.625l1.585-60.625
			c1.102-40.417,2.024-80.833,2.404-121.25c0.377-40.417,0.286-80.833-0.096-121.25l-0.359-30.313l-0.518-30.313
			c-0.312-20.207-0.829-40.416-1.249-60.624c-0.062-2.955,2.281-5.401,5.235-5.47l0.24-0.005l58.875-1.351l29.438-0.643
			l29.438-0.525c39.25-0.747,78.5-1.043,117.75-1.424l117.75-1.166C456,46.604,495.25,46.5,534.5,46.5h0.059
			c5.894,0,10.941,5.079,10.941,10.973V57.5c0,40.417-0.602,80.833-1.075,121.25c-0.439,40.417-1.143,80.833-1.885,121.25
			c-0.357,20.208-0.856,40.417-1.321,60.625l-0.708,30.313l-0.84,30.313c-1.098,40.417-2.402,80.833-4.166,121.25
			c-0.022,0.543-0.462,0.972-0.994,1L534.5,543.5L534.5,543.5z M533.464,541.456c-1.74-40.068-3.037-80.138-4.126-120.206
			l-0.831-30.313l-0.688-30.313c-0.466-20.208-0.93-40.417-1.286-60.625c-0.742-40.417-1.373-80.833-1.813-121.25
			c-0.474-40.417-0.769-80.833-0.933-121.25L534.5,68.215c-39.25,0.057-78.5,0.039-117.75-0.272L299,66.919
			c-39.25-0.381-78.5-0.677-117.75-1.424l-29.438-0.525l-29.438-0.643L63.5,62.975l5.475-5.475
			c-0.42,20.208-0.937,40.417-1.249,60.625l-0.518,30.313l-0.359,30.313c-0.382,40.417-0.473,80.833-0.096,121.25
			c0.379,40.417,1.302,80.833,2.404,121.25l1.585,60.625c0.473,20.208,0.931,40.417,1.206,60.625l-8.448-8.449
			c39.25-0.604,78.5-0.688,117.75-0.425c19.625,0.053,39.25,0.271,58.875,0.406c19.625,0.229,39.25,0.412,58.875,0.729
			c39.25,0.578,78.5,1.356,117.75,2.427C455.654,538.263,494.56,539.542,533.464,541.456z"/>
	</g>
</g>
<g>
	<rect x="142.907" y="132.732" fill="none" width="331.958" height="346.392"/>
	<path fill="#ED7D31" d="M284.313,209.136c-8.021,13.855-18.438,25.99-31.25,36.406c11.875,5.313,27.76,9.48,47.656,12.5
		c-4.584,7.5-9.011,15.104-13.281,22.813c-21.25-4.792-39.324-11.928-54.219-21.406c-15.313,8.958-33.438,16.614-54.375,22.969
		c-3.75-6.875-7.709-13.594-11.875-20.156c17.395-4.895,33.072-10.572,47.031-17.031c-7.605-7.083-14.48-15.208-20.625-24.375
		c-12.084,19.271-25.938,35.625-41.563,49.063c-2.188-9.791-4.48-18.489-6.875-26.094c20.313-19.063,35.469-41.197,45.469-66.406
		h-39.219v-18.75c2.916-8.541,5.52-17.5,7.813-26.875l21.406,2.344c-1.563,6.459-3.699,14.48-6.406,24.063h22.5
		c2.395-8.854,4.791-19.166,7.188-30.938l22.656,1.875l-6.563,29.063h43.75c-5.834-5.729-11.824-11.458-17.969-17.188l13.75-12.969
		c9.583,7.396,17.708,14.115,24.375,20.156l-9.844,10h26.406v19.219h-86.406c-1.563,4.375-3.386,9.167-5.469,14.375h75.938V209.136z
		 M232.907,234.292c10.833-7.708,19.27-15.833,25.313-24.375h-47.5C216.552,219.188,223.948,227.313,232.907,234.292z"/>
	<path fill="#ED7D31" d="M384.938,199.604h-19.531v17.344h17.5v19.219h-17.5v19.766c5.104,0.625,15.911,0.938,32.422,0.938
		c15.729,0,36.692-0.286,62.891-0.859c-2.709,6.77-5.209,14.166-7.5,22.188c-41.615,0-70.717-0.496-87.305-1.484
		c-16.589-0.99-28.503-7.449-35.742-19.375c-2.188,9.375-5.078,17.578-8.672,24.609c-3.854-4.271-9.323-10.156-16.406-17.656
		c6.771-13.541,10.104-33.02,10-58.438h20c0,9.115-0.339,17.656-1.016,25.625c2.604,6.511,6.224,11.746,10.859,15.703v-47.578
		h-39.375v-19.219h30.469v-14.375h-25.156v-19.219h25.156v-20h21.406v20h23.125v19.219h-23.125v14.375h27.5V199.604z
		 M437.126,201.948c8.646,3.75,15.781,6.563,21.406,8.438c-1.459,12.396-3.125,20.469-5,24.219
		c-3.021,9.063-10.99,13.594-23.906,13.594h-18.594c-14.167,0-21.25-7.5-21.25-22.5v-48.594h39.688v-22.5h-42.813v-19.063h64.063
		v60.625h-39.688v25.781c0,4.792,2.604,7.188,7.813,7.188h7.188c4.219,0,6.992-1.172,8.32-3.516S436.604,215.386,437.126,201.948z"
		/>
	<path fill="#ED7D31" d="M151.813,472.542V325.667h142.188v146.719h-21.719v-5.469h-98.75v5.625H151.813z M272.282,344.729h-98.75
		v103.438h98.75V344.729z M234.157,348.479h20.469v13.75h11.094v18.281h-11.094v33.594c0,9.428-2.136,16.602-6.406,21.523
		c-4.271,4.922-10.457,7.644-18.555,8.164c-8.1,0.521-15.195,0.781-21.289,0.781c-1.25-7.5-2.605-14.063-4.063-19.688
		c4.947,0.417,10.676,0.625,17.188,0.625c8.438,0,12.656-4.322,12.656-12.969v-25.391c-10.938,15.781-26.25,31.225-45.938,46.328
		c-4.792-6.771-9.219-12.447-13.281-17.031c18.438-10.885,33.567-22.864,45.391-35.938h-40.234v-18.281h54.063V348.479z"/>
	<path fill="#ED7D31" d="M334.157,350.823h15.313v54.375c0,5.313-0.417,10.417-1.25,15.313c8.333,8.542,18.802,19.948,31.406,34.219
		l-14.688,13.75c-6.354-9.219-13.75-18.88-22.188-28.984c-5.521,12.865-14.531,24.088-27.031,33.672
		c-2.813-4.584-6.511-9.948-11.094-16.094c19.688-12.5,29.531-29.896,29.531-52.188V350.823z M388.688,319.104l19.063,3.125
		c-1.823,6.354-3.725,12.396-5.703,18.125h53.047l-0.313,60.156l-0.469,41.563c-0.156,8.542-1.862,15.091-5.117,19.648
		c-3.256,4.557-7.318,7.239-12.188,8.047c-4.87,0.807-16.706,1.314-35.508,1.523c-1.146-6.25-2.761-13.229-4.844-20.938
		c14.791,0.417,23.802,0.625,27.031,0.625c7.708,0,11.563-4.271,11.563-12.813v-3.281l-11.563,4.219l-2.578-8.359
		c-22.917,1.771-36.901,3.568-41.953,5.391l-6.406-12.813h-16.094v-79.063H326.97v79.688h-16.094v-97.656h61.875v33.984
		C379.417,348.298,384.729,334.573,388.688,319.104z M423.688,385.979c4.01,9.531,7.916,19.975,11.719,31.328
		c0.104-14.896,0.156-34.192,0.156-57.891H394.47c-4.271,9.531-8.906,17.865-13.906,25c-2.709-3.072-5.313-5.833-7.813-8.281v40.234
		c6.51-5.416,14.322-21.536,23.438-48.359l17.969,5.781c-7.396,16.979-13.646,30.678-18.75,41.094l20.078-1.641
		c-2.553-7.656-5.078-14.817-7.578-21.484L423.688,385.979z"/>
</g>
</svg>
